<svg width="800" height="800" viewBox="0 0 800 800" fill="none" xmlns="http://www.w3.org/2000/svg">
  <defs>
    <linearGradient id="bgGrad" x1="110" y1="110" x2="690" y2="690" gradientUnits="userSpaceOnUse">
      <stop offset="0" stop-color="#9AD5FF"/>
      <stop offset="0.18" stop-color="#69B7EF"/>
      <stop offset="0.52" stop-color="#2F7FC7"/>
      <stop offset="0.78" stop-color="#1D5DAA"/>
      <stop offset="1" stop-color="#0F325F"/>
    </linearGradient>
    <linearGradient id="metalGrad" x1="100" y1="100" x2="700" y2="700" gradientUnits="userSpaceOnUse">
      <stop offset="0" stop-color="#F5FAFF"/>
      <stop offset="0.12" stop-color="#D9E7F5"/>
      <stop offset="0.5" stop-color="#8AA9C6"/>
      <stop offset="0.82" stop-color="#F6FBFF"/>
      <stop offset="1" stop-color="#9AB5C8"/>
    </linearGradient>
    <linearGradient id="innerGlow" x1="230" y1="150" x2="560" y2="600" gradientUnits="userSpaceOnUse">
      <stop offset="0" stop-color="#A9D9FF"/>
      <stop offset="1" stop-color="#2D6CB1"/>
    </linearGradient>
    <filter id="shadow" x="-20%" y="-20%" width="140%" height="140%">
      <feDropShadow dx="0" dy="18" stdDeviation="18" flood-opacity="0.3" flood-color="#041526"/>
    </filter>
  </defs>

  <rect x="90" y="90" width="620" height="620" rx="140" fill="url(#metalGrad)" opacity="0.9"/>
  <rect x="110" y="110" width="580" height="580" rx="124" fill="url(#bgGrad)" stroke="#D7EAF8" stroke-width="8"/>

  <g filter="url(#shadow)">
    <path d="M270 245C220 245 186 278 186 326V541C186 583 218 614 265 614H336C380 614 405 585 405 546V511C405 473 380 444 336 444H284V366H332C351 366 366 351 366 333C366 314 351 299 332 299H270V245Z" fill="url(#innerGlow)" opacity="0.28"/>
    <path d="M285 226L430 226C491 226 542 277 542 338C542 396 498 440 439 440H346L416 552H333L264 440H243V552H168V226H285ZM285 366H400C426 366 448 348 448 322C448 293 426 274 400 274H285V366Z" fill="white" fill-opacity="0.95"/>
    <path d="M420 245L544 245L604 343L533 343L420 245Z" fill="white" fill-opacity="0.96"/>
    <path d="M505 283L612 283C666 283 703 312 703 363C703 417 662 447 600 447H524L505 283Z" fill="url(#innerGlow)" opacity="0.9"/>
    <path d="M530 335L648 335C659 335 669 344 669 355C669 366 659 375 648 375H530V335Z" fill="white" fill-opacity="0.9"/>
  </g>

  <path d="M220 470C220 390 291 324 378 324" stroke="#D9F3FF" stroke-width="10" stroke-linecap="round" opacity="0.85"/>
  <path d="M417 346C436 346 449 359 449 377V570" stroke="#D9F3FF" stroke-width="10" stroke-linecap="round" opacity="0.8"/>
  <path d="M428 455C470 455 505 426 508 385" stroke="#D9F3FF" stroke-width="10" stroke-linecap="round" opacity="0.8"/>

  <g fill="#E9D87E">
    <circle cx="220" cy="470" r="12"/>
    <circle cx="378" cy="324" r="12"/>
    <circle cx="417" cy="346" r="12"/>
    <circle cx="449" cy="377" r="12"/>
    <circle cx="505" cy="385" r="12"/>
    <circle cx="508" cy="570" r="12"/>
  </g>

  <g>
    <text x="400" y="552" text-anchor="middle" font-family="Arial, Helvetica, sans-serif" font-size="104" font-weight="700" letter-spacing="3" fill="#F7FBFF">REPOPILOT</text>
    <text x="400" y="620" text-anchor="middle" font-family="Arial, Helvetica, sans-serif" font-size="28" font-weight="600" fill="#EEF8FF" opacity="0.9">By Badal Sahu</text>
  </g>
</svg>
